<svg width="1200" height="675" viewBox="0 0 1200 675" fill="none" xmlns="http://www.w3.org/2000/svg">
<g clip-path="url(#clip0_1_2)">
<rect width="1200" height="675" fill="white"/>
<path fill-rule="evenodd" clip-rule="evenodd" d="M471.249 -338.043C487.229 -340.749 503.29 -342.951 519.408 -344.645L569.506 132H550.86L471.249 -338.043ZM482.779 132H550.86L574.25 270.098C577.446 269.556 580.658 269.116 583.882 268.777L569.506 132H632.477L617.154 268.89C620.375 269.25 623.584 269.712 626.776 270.275L651.158 132H719.507L658.729 279.554C661.726 280.789 664.684 282.118 667.597 283.539L741.507 132H777.585C800.06 132 816.124 132 828.049 134.273L695.754 301.265C698.295 303.278 700.771 305.371 703.18 307.54L849.591 144.934C861.155 157.222 861.155 176.912 861.155 215.57V235.075L725.36 332.341C727.248 334.976 729.052 337.67 730.769 340.419L861.155 258.945V328.94L745.254 370.241C746.342 373.294 747.333 376.381 748.227 379.497L861.155 347.115V375.112C861.155 386.908 861.155 396.938 860.826 405.531L753.894 412.283C754.098 415.518 754.2 418.759 754.2 422H859.48C857.905 432.829 854.848 440.512 848.917 446.443C836.678 458.682 816.981 458.682 777.585 458.682H422.414C383.019 458.682 363.322 458.682 351.083 446.443C344.86 440.22 341.801 432.068 340.298 420.379L445.803 421.091C445.825 417.85 445.949 414.61 446.175 411.377L339.115 403.89C338.845 395.668 338.845 386.165 338.845 375.112V345.335L452.064 378.629C452.978 375.52 453.99 372.439 455.099 369.394L338.845 327.08V256.482L469.786 339.538C471.522 336.801 473.344 334.119 475.249 331.497L338.845 232.393V215.57C338.845 176.175 338.845 156.477 351.083 144.239C351.451 143.87 351.827 143.513 352.209 143.166L497.596 306.846C500.02 304.693 502.51 302.617 505.065 300.622L374.726 133.795C386.34 132 401.638 132 422.414 132H460.911L533.341 283.085C536.264 281.684 539.23 280.375 542.235 279.161L482.779 132ZM482.779 132H460.911L266.704 -273.107C281.319 -280.113 296.151 -286.656 311.178 -292.728L482.779 132ZM374.726 133.795L125.324 -185.425C112.552 -175.447 100.099 -165.068 87.9812 -154.305L352.209 143.166C357.828 138.072 364.98 135.302 374.726 133.795ZM338.845 232.393L-23.7537 -31.0504C-33.2801 -17.9384 -42.3907 -4.5293 -51.0719 9.15698L338.845 256.482V232.393ZM338.845 327.08L-124.505 158.435C-130.048 173.665 -135.11 189.065 -139.682 204.614L338.845 345.335V327.08ZM339.115 403.89L-169.124 368.351C-170.254 384.518 -170.875 400.718 -170.984 416.925L340.298 420.379C339.674 415.53 339.318 410.072 339.115 403.89ZM859.48 422H1371C1371 405.793 1370.49 389.59 1369.47 373.414L860.826 405.531C860.59 411.727 860.182 417.176 859.48 422ZM861.155 347.115L1341.13 209.484C1336.67 193.905 1331.71 178.47 1326.27 163.203L861.155 328.94V347.115ZM861.155 258.945L1253.85 13.5641C1245.26 -0.180389 1236.24 -13.6507 1226.8 -26.8267L861.155 235.075V258.945ZM849.591 144.934L1115.9 -150.833C1103.86 -161.678 1091.47 -172.14 1078.77 -182.205L828.049 134.273C837.027 135.983 843.66 138.982 848.917 144.239C849.146 144.468 849.37 144.7 849.591 144.934ZM741.507 132L937.985 -270.839C923.418 -277.944 908.631 -284.587 893.645 -290.76L719.507 132H741.507ZM651.158 132L733.883 -337.156C717.922 -339.97 701.876 -342.281 685.769 -344.083L632.477 132H651.158ZM678.489 343.511C699.305 364.328 711 392.561 711 422H600H489C489 392.561 500.695 364.328 521.511 343.511C542.328 322.695 570.561 311 600 311C629.439 311 657.672 322.695 678.489 343.511ZM328.345 486.328C333.454 476.111 336.008 471.003 340.598 468.166C345.187 465.33 350.899 465.33 362.321 465.33H837.678C849.101 465.33 854.812 465.33 859.402 468.166C863.991 471.003 866.545 476.11 871.653 486.325L871.654 486.327L871.654 486.328L874.503 492.026C886.823 516.665 892.983 528.984 887.415 537.992C881.848 547 868.075 547 840.527 547H359.472C331.925 547 318.152 547 312.584 537.992C307.017 528.984 313.177 516.665 325.496 492.026L328.345 486.328Z" fill="#42BB69"/>
<path fill-rule="evenodd" clip-rule="evenodd" d="M-30.8119 535.022C-33.5237 535.022 -36.1287 535.479 -38.5541 536.32C-26.7868 542.598 -17.2668 552.536 -11.5138 564.613C-11.1108 566.158 -10.5553 567.642 -9.86419 569.047C-9.82207 568.937 -9.77964 568.827 -9.73691 568.718C-9.69419 568.827 -9.65176 568.937 -9.60963 569.047C-8.91858 567.642 -8.36304 566.158 -7.96006 564.613C-2.207 552.536 7.31292 542.598 19.0803 536.32C16.6549 535.479 14.0499 535.022 11.3381 535.022C2.13357 535.022 -5.84094 540.288 -9.73691 547.972C-13.6329 540.288 -21.6074 535.022 -30.8119 535.022Z" fill="#42BB69"/>
<path fill-rule="evenodd" clip-rule="evenodd" d="M-31.8119 650.022C-34.5237 650.022 -37.1287 650.479 -39.5541 651.32C-27.7868 657.598 -18.2669 667.536 -12.5138 679.613C-12.1108 681.158 -11.5553 682.642 -10.8642 684.047C-10.8221 683.937 -10.7796 683.827 -10.7369 683.718C-10.6942 683.827 -10.6518 683.937 -10.6096 684.047C-9.91858 682.642 -9.36304 681.158 -8.96006 679.613C-3.207 667.536 6.31291 657.598 18.0803 651.32C15.6549 650.479 13.0498 650.022 10.3381 650.022C1.13356 650.022 -6.84095 655.288 -10.7369 662.972C-14.6329 655.288 -22.6074 650.022 -31.8119 650.022Z" fill="#42BB69"/>
<path fill-rule="evenodd" clip-rule="evenodd" d="M61.1881 593.022C58.4763 593.022 55.8713 593.479 53.4459 594.32C65.2132 600.598 74.7331 610.536 80.4862 622.613C80.8892 624.158 81.4447 625.642 82.1358 627.047C82.1779 626.937 82.2204 626.827 82.2631 626.718C82.3058 626.827 82.3482 626.937 82.3904 627.047C83.0814 625.642 83.637 624.158 84.0399 622.613C89.793 610.536 99.3129 600.598 111.08 594.32C108.655 593.479 106.05 593.022 103.338 593.022C94.1336 593.022 86.159 598.288 82.2631 605.972C78.3671 598.288 70.3926 593.022 61.1881 593.022Z" fill="#42BB69"/>
<path fill-rule="evenodd" clip-rule="evenodd" d="M61.1881 477.022C58.4763 477.022 55.8713 477.479 53.4459 478.32C65.2133 484.598 74.7332 494.536 80.4863 506.613C80.8892 508.158 81.4448 509.642 82.1358 511.047C82.178 510.937 82.2204 510.827 82.2631 510.718C82.3058 510.827 82.3482 510.937 82.3904 511.047C83.0814 509.642 83.6369 508.158 84.0399 506.613C89.793 494.536 99.3129 484.598 111.08 478.32C108.655 477.479 106.05 477.022 103.338 477.022C94.1336 477.022 86.1591 482.288 82.2631 489.972C78.3671 482.288 70.3926 477.022 61.1881 477.022Z" fill="#42BB69"/>
<path fill-rule="evenodd" clip-rule="evenodd" d="M141.188 650.022C138.476 650.022 135.871 650.479 133.446 651.32C145.213 657.598 154.733 667.536 160.486 679.613C160.889 681.158 161.445 682.642 162.136 684.047C162.178 683.937 162.22 683.827 162.263 683.718C162.306 683.827 162.348 683.937 162.39 684.047C163.081 682.642 163.637 681.158 164.04 679.613C169.793 667.536 179.313 657.598 191.08 651.32C188.655 650.479 186.05 650.022 183.338 650.022C174.134 650.022 166.159 655.288 162.263 662.972C158.367 655.288 150.393 650.022 141.188 650.022Z" fill="#42BB69"/>
<path fill-rule="evenodd" clip-rule="evenodd" d="M234.188 593.022C231.476 593.022 228.871 593.479 226.446 594.32C238.213 600.598 247.733 610.536 253.486 622.613C253.889 624.158 254.445 625.642 255.136 627.047C255.178 626.937 255.22 626.827 255.263 626.718C255.306 626.827 255.348 626.937 255.39 627.047C256.081 625.642 256.637 624.158 257.04 622.613C262.793 610.536 272.313 600.598 284.08 594.32C281.655 593.479 279.05 593.022 276.338 593.022C267.134 593.022 259.159 598.288 255.263 605.972C251.367 598.288 243.393 593.022 234.188 593.022Z" fill="#42BB69"/>
<path fill-rule="evenodd" clip-rule="evenodd" d="M234.188 477.022C231.476 477.022 228.871 477.479 226.446 478.32C238.213 484.598 247.733 494.536 253.486 506.613C253.889 508.158 254.445 509.642 255.136 511.047C255.178 510.937 255.22 510.827 255.263 510.718C255.306 510.827 255.348 510.937 255.39 511.047C256.081 509.642 256.637 508.158 257.04 506.613C262.793 494.536 272.313 484.598 284.08 478.32C281.655 477.479 279.05 477.022 276.338 477.022C267.134 477.022 259.159 482.288 255.263 489.972C251.367 482.288 243.393 477.022 234.188 477.022Z" fill="#42BB69"/>
<path fill-rule="evenodd" clip-rule="evenodd" d="M314.188 650.022C311.476 650.022 308.871 650.479 306.446 651.32C318.213 657.598 327.733 667.536 333.486 679.613C333.889 681.158 334.445 682.642 335.136 684.047C335.178 683.937 335.22 683.827 335.263 683.718C335.306 683.827 335.348 683.937 335.39 684.047C336.081 682.642 336.637 681.158 337.04 679.613C342.793 667.536 352.313 657.598 364.08 651.32C361.655 650.479 359.05 650.022 356.338 650.022C347.134 650.022 339.159 655.288 335.263 662.972C331.367 655.288 323.393 650.022 314.188 650.022Z" fill="#42BB69"/>
<path fill-rule="evenodd" clip-rule="evenodd" d="M407.188 593.022C404.476 593.022 401.871 593.479 399.446 594.32C411.213 600.598 420.733 610.536 426.486 622.613C426.889 624.158 427.445 625.642 428.136 627.047C428.178 626.937 428.22 626.827 428.263 626.718C428.306 626.827 428.348 626.937 428.39 627.047C429.081 625.642 429.637 624.158 430.04 622.613C435.793 610.536 445.313 600.598 457.08 594.32C454.655 593.479 452.05 593.022 449.338 593.022C440.134 593.022 432.159 598.288 428.263 605.972C424.367 598.288 416.393 593.022 407.188 593.022Z" fill="#42BB69"/>
<path fill-rule="evenodd" clip-rule="evenodd" d="M487.188 650.022C484.476 650.022 481.871 650.479 479.446 651.32C491.213 657.598 500.733 667.536 506.486 679.613C506.889 681.158 507.445 682.642 508.136 684.047C508.178 683.937 508.22 683.827 508.263 683.718C508.306 683.827 508.348 683.937 508.39 684.047C509.081 682.642 509.637 681.158 510.04 679.613C515.793 667.536 525.313 657.598 537.08 651.32C534.655 650.479 532.05 650.022 529.338 650.022C520.134 650.022 512.159 655.288 508.263 662.972C504.367 655.288 496.393 650.022 487.188 650.022Z" fill="#42BB69"/>
<path fill-rule="evenodd" clip-rule="evenodd" d="M580.188 593.022C577.476 593.022 574.871 593.479 572.446 594.32C584.213 600.598 593.733 610.536 599.486 622.613C599.889 624.158 600.445 625.642 601.136 627.047C601.178 626.937 601.22 626.827 601.263 626.718C601.306 626.827 601.348 626.937 601.39 627.047C602.081 625.642 602.637 624.158 603.04 622.613C608.793 610.536 618.313 600.598 630.08 594.32C627.655 593.479 625.05 593.022 622.338 593.022C613.134 593.022 605.159 598.288 601.263 605.972C597.367 598.288 589.393 593.022 580.188 593.022Z" fill="#42BB69"/>
<path fill-rule="evenodd" clip-rule="evenodd" d="M660.188 650.022C657.476 650.022 654.871 650.479 652.446 651.32C664.213 657.598 673.733 667.536 679.486 679.613C679.889 681.158 680.445 682.642 681.136 684.047C681.178 683.937 681.22 683.827 681.263 683.718C681.306 683.827 681.348 683.937 681.39 684.047C682.081 682.642 682.637 681.158 683.04 679.613C688.793 667.536 698.313 657.598 710.08 651.32C707.655 650.479 705.05 650.022 702.338 650.022C693.134 650.022 685.159 655.288 681.263 662.972C677.367 655.288 669.393 650.022 660.188 650.022Z" fill="#42BB69"/>
<path fill-rule="evenodd" clip-rule="evenodd" d="M753.188 593.022C750.476 593.022 747.871 593.479 745.446 594.32C757.213 600.598 766.733 610.536 772.486 622.613C772.889 624.158 773.445 625.642 774.136 627.047C774.178 626.937 774.22 626.827 774.263 626.718C774.306 626.827 774.348 626.937 774.39 627.047C775.081 625.642 775.637 624.158 776.04 622.613C781.793 610.536 791.313 600.598 803.08 594.32C800.655 593.479 798.05 593.022 795.338 593.022C786.134 593.022 778.159 598.288 774.263 605.972C770.367 598.288 762.393 593.022 753.188 593.022Z" fill="#42BB69"/>
<path fill-rule="evenodd" clip-rule="evenodd" d="M833.188 650.022C830.476 650.022 827.871 650.479 825.446 651.32C837.213 657.598 846.733 667.536 852.486 679.613C852.889 681.158 853.445 682.642 854.136 684.047C854.178 683.937 854.22 683.827 854.263 683.718C854.306 683.827 854.348 683.937 854.39 684.047C855.081 682.642 855.637 681.158 856.04 679.613C861.793 667.536 871.313 657.598 883.08 651.32C880.655 650.479 878.05 650.022 875.338 650.022C866.134 650.022 858.159 655.288 854.263 662.972C850.367 655.288 842.393 650.022 833.188 650.022Z" fill="#42BB69"/>
<path fill-rule="evenodd" clip-rule="evenodd" d="M926.188 593.022C923.476 593.022 920.871 593.479 918.446 594.32C930.213 600.598 939.733 610.536 945.486 622.613C945.889 624.158 946.445 625.642 947.136 627.047C947.178 626.937 947.22 626.827 947.263 626.718C947.306 626.827 947.348 626.937 947.39 627.047C948.081 625.642 948.637 624.158 949.04 622.613C954.793 610.536 964.313 600.598 976.08 594.32C973.655 593.479 971.05 593.022 968.338 593.022C959.134 593.022 951.159 598.288 947.263 605.972C943.367 598.288 935.393 593.022 926.188 593.022Z" fill="#42BB69"/>
<path fill-rule="evenodd" clip-rule="evenodd" d="M926.188 477.022C923.476 477.022 920.871 477.479 918.446 478.32C930.213 484.598 939.733 494.536 945.486 506.613C945.889 508.158 946.445 509.642 947.136 511.047C947.178 510.937 947.22 510.827 947.263 510.718C947.306 510.827 947.348 510.937 947.39 511.047C948.081 509.642 948.637 508.158 949.04 506.613C954.793 494.536 964.313 484.598 976.08 478.32C973.655 477.479 971.05 477.022 968.338 477.022C959.134 477.022 951.159 482.288 947.263 489.972C943.367 482.288 935.393 477.022 926.188 477.022Z" fill="#42BB69"/>
<path fill-rule="evenodd" clip-rule="evenodd" d="M1006.19 650.022C1003.48 650.022 1000.87 650.479 998.446 651.32C1010.21 657.598 1019.73 667.536 1025.49 679.613C1025.89 681.158 1026.44 682.642 1027.14 684.047C1027.18 683.937 1027.22 683.827 1027.26 683.718C1027.31 683.827 1027.35 683.937 1027.39 684.047C1028.08 682.642 1028.64 681.158 1029.04 679.613C1034.79 667.536 1044.31 657.598 1056.08 651.32C1053.65 650.479 1051.05 650.022 1048.34 650.022C1039.13 650.022 1031.16 655.288 1027.26 662.972C1023.37 655.288 1015.39 650.022 1006.19 650.022Z" fill="#42BB69"/>
<path fill-rule="evenodd" clip-rule="evenodd" d="M1185.19 650.022C1182.48 650.022 1179.87 650.479 1177.45 651.32C1189.21 657.598 1198.73 667.536 1204.49 679.613C1204.89 681.158 1205.44 682.642 1206.14 684.047C1206.18 683.937 1206.22 683.827 1206.26 683.718C1206.31 683.827 1206.35 683.937 1206.39 684.047C1207.08 682.642 1207.64 681.158 1208.04 679.613C1213.79 667.536 1223.31 657.598 1235.08 651.32C1232.65 650.479 1230.05 650.022 1227.34 650.022C1218.13 650.022 1210.16 655.288 1206.26 662.972C1202.37 655.288 1194.39 650.022 1185.19 650.022Z" fill="#42BB69"/>
<path fill-rule="evenodd" clip-rule="evenodd" d="M1099.19 593.022C1096.48 593.022 1093.87 593.479 1091.45 594.32C1103.21 600.598 1112.73 610.536 1118.49 622.613C1118.89 624.158 1119.44 625.642 1120.14 627.047C1120.18 626.937 1120.22 626.827 1120.26 626.718C1120.31 626.827 1120.35 626.937 1120.39 627.047C1121.08 625.642 1121.64 624.158 1122.04 622.613C1127.79 610.536 1137.31 600.598 1149.08 594.32C1146.65 593.479 1144.05 593.022 1141.34 593.022C1132.13 593.022 1124.16 598.288 1120.26 605.972C1116.37 598.288 1108.39 593.022 1099.19 593.022Z" fill="#42BB69"/>
<path fill-rule="evenodd" clip-rule="evenodd" d="M1099.19 477.022C1096.48 477.022 1093.87 477.479 1091.45 478.32C1103.21 484.598 1112.73 494.536 1118.49 506.613C1118.89 508.158 1119.44 509.642 1120.14 511.047C1120.18 510.937 1120.22 510.827 1120.26 510.718C1120.31 510.827 1120.35 510.937 1120.39 511.047C1121.08 509.642 1121.64 508.158 1122.04 506.613C1127.79 494.536 1137.31 484.598 1149.08 478.32C1146.65 477.479 1144.05 477.022 1141.34 477.022C1132.13 477.022 1124.16 482.288 1120.26 489.972C1116.37 482.288 1108.39 477.022 1099.19 477.022Z" fill="#42BB69"/>
<path fill-rule="evenodd" clip-rule="evenodd" d="M141.188 535.022C138.476 535.022 135.871 535.479 133.446 536.32C145.213 542.598 154.733 552.536 160.486 564.613C160.889 566.158 161.445 567.642 162.136 569.047C162.178 568.937 162.22 568.827 162.263 568.718C162.306 568.827 162.348 568.937 162.39 569.047C163.081 567.642 163.637 566.158 164.04 564.613C169.793 552.536 179.313 542.598 191.08 536.32C188.655 535.479 186.05 535.022 183.338 535.022C174.134 535.022 166.159 540.288 162.263 547.972C158.367 540.288 150.393 535.022 141.188 535.022Z" fill="#42BB69"/>
<path fill-rule="evenodd" clip-rule="evenodd" d="M1005.19 535.022C1002.48 535.022 999.871 535.479 997.446 536.32C1009.21 542.598 1018.73 552.536 1024.49 564.613C1024.89 566.158 1025.44 567.642 1026.14 569.047C1026.18 568.937 1026.22 568.827 1026.26 568.718C1026.31 568.827 1026.35 568.937 1026.39 569.047C1027.08 567.642 1027.64 566.158 1028.04 564.613C1033.79 552.536 1043.31 542.598 1055.08 536.32C1052.65 535.479 1050.05 535.022 1047.34 535.022C1038.13 535.022 1030.16 540.288 1026.26 547.972C1022.37 540.288 1014.39 535.022 1005.19 535.022Z" fill="#42BB69"/>
<path fill-rule="evenodd" clip-rule="evenodd" d="M1184.19 535.022C1181.48 535.022 1178.87 535.479 1176.45 536.32C1188.21 542.598 1197.73 552.536 1203.49 564.613C1203.89 566.158 1204.44 567.642 1205.14 569.047C1205.18 568.937 1205.22 568.827 1205.26 568.718C1205.31 568.827 1205.35 568.937 1205.39 569.047C1206.08 567.642 1206.64 566.158 1207.04 564.613C1212.79 552.536 1222.31 542.598 1234.08 536.32C1231.65 535.479 1229.05 535.022 1226.34 535.022C1217.13 535.022 1209.16 540.288 1205.26 547.972C1201.37 540.288 1193.39 535.022 1184.19 535.022Z" fill="#42BB69"/>
</g>
<defs>
<clipPath id="clip0_1_2">
<rect width="1200" height="675" fill="white"/>
</clipPath>
</defs>
</svg>
